<svg width="57" height="47" viewBox="0 0 57 47" fill="none" xmlns="http://www.w3.org/2000/svg">
<rect x="7" width="40" height="40" rx="20" fill="#FFF7EC"/>
<path d="M24.6492 23.32C24.6492 22.56 24.2992 21.79 23.5992 21.01C22.9192 20.23 22.1492 19.84 21.2892 19.84C20.8892 19.86 20.4592 19.91 19.9992 19.99C19.5592 20.07 19.2992 20.15 19.2192 20.23C19.1792 20.27 19.1592 20.42 19.1592 20.68C19.1592 21.9 19.2792 23.04 19.5192 24.1C19.6592 24.64 20.3992 24.91 21.7392 24.91C23.6792 24.91 24.6492 24.38 24.6492 23.32ZM17.3592 11.71C17.4992 11.57 17.6292 11.5 17.7492 11.5C17.9892 11.5 18.2592 11.65 18.5592 11.95L18.9792 12.4L18.8892 14.53C18.8492 15.83 18.7992 16.65 18.7392 16.99C18.6992 17.17 18.7192 17.36 18.7992 17.56C18.8392 17.7 18.9492 17.79 19.1292 17.83C19.3092 17.85 19.7692 17.86 20.5092 17.86C21.6092 17.86 22.4292 17.98 22.9692 18.22C23.4292 18.42 23.9692 18.74 24.5892 19.18C25.2092 19.6 25.5192 19.87 25.5192 19.99C25.5192 20.07 25.6192 20.25 25.8192 20.53C26.3192 21.25 26.5692 22.2 26.5692 23.38C26.5692 23.86 26.5092 24.28 26.3892 24.64C26.2892 24.98 25.9292 25.46 25.3092 26.08C25.1692 26.24 24.9092 26.43 24.5292 26.65C24.1692 26.85 23.9292 26.95 23.8092 26.95C23.6092 26.95 23.4592 27 23.3592 27.1C23.2592 27.2 22.8292 27.25 22.0692 27.25C21.1492 27.25 20.3092 27.23 19.5492 27.19C18.4892 27.15 17.9092 27.03 17.8092 26.83C17.6492 26.59 17.4292 24.88 17.1492 21.7C17.0492 20.36 16.9492 19.57 16.8492 19.33C16.8092 19.21 16.7892 18.82 16.7892 18.16C16.7892 15.74 16.8792 13.97 17.0592 12.85C17.1192 12.27 17.2192 11.89 17.3592 11.71ZM32.6791 12.19C32.5991 12.13 32.5091 12.1 32.4091 12.1C32.2291 12.1 32.0691 12.26 31.9291 12.58C31.8091 12.78 31.7491 13.32 31.7491 14.2C31.7491 14.9 31.7991 15.3 31.8991 15.4C31.9391 15.44 31.9791 15.46 32.0191 15.46C32.1791 15.46 32.3691 15.07 32.5891 14.29C32.7691 13.67 32.8591 13.15 32.8591 12.73C32.8591 12.43 32.7991 12.25 32.6791 12.19ZM31.7791 10.66C31.8991 10.58 32.0091 10.54 32.1091 10.54C32.3491 10.54 32.6391 10.64 32.9791 10.84C33.3391 11.04 33.6391 11.29 33.8791 11.59L34.2991 12.1L34.2091 13.24C34.1291 14.24 33.9491 15.04 33.6691 15.64C33.5491 15.92 33.4891 16.1 33.4891 16.18C33.4891 16.28 33.2791 16.54 32.8591 16.96C32.5991 17.22 32.4291 17.43 32.3491 17.59C32.2891 17.73 32.2391 17.97 32.1991 18.31V18.61C32.1991 18.89 32.2391 19.03 32.3191 19.03C32.3991 19.03 32.5091 18.96 32.6491 18.82C32.7491 18.72 32.9191 18.67 33.1591 18.67C33.4391 18.67 33.8491 18.74 34.3891 18.88C34.8491 18.98 35.1891 19.15 35.4091 19.39C35.6491 19.61 35.8191 19.95 35.9191 20.41C36.0391 21.01 36.1191 21.51 36.1591 21.91C36.1991 22.59 36.3491 23.18 36.6091 23.68C36.8691 24.16 37.1591 24.4 37.4791 24.4C37.6591 24.4 37.9291 24.26 38.2891 23.98C38.6291 23.74 38.8791 23.62 39.0391 23.62C39.0591 23.62 39.0791 23.63 39.0991 23.65C39.1391 23.65 39.1691 23.65 39.1891 23.65C39.8491 23.79 40.1791 24.05 40.1791 24.43C40.1791 24.57 40.0091 24.87 39.6691 25.33C39.3291 25.77 39.0591 26.04 38.8591 26.14C38.7791 26.18 38.6391 26.3 38.4391 26.5C38.2991 26.66 38.0691 26.74 37.7491 26.74C37.3291 26.74 36.8591 26.59 36.3391 26.29C35.8191 25.99 35.3891 25.61 35.0491 25.15C34.5691 24.49 34.2591 23.46 34.1191 22.06C34.0391 21.22 33.9591 20.76 33.8791 20.68C33.8391 20.64 33.7791 20.62 33.6991 20.62C33.5591 20.62 33.3991 20.69 33.2191 20.83C33.0391 20.95 32.9191 21.08 32.8591 21.22C32.7191 21.56 32.5091 22.38 32.2291 23.68C32.1691 23.98 32.1091 24.43 32.0491 25.03C31.9691 25.73 31.8391 26.19 31.6591 26.41C31.4391 26.67 31.3291 26.86 31.3291 26.98C31.2891 27.2 31.1291 27.31 30.8491 27.31C30.3891 27.31 30.0591 27.11 29.8591 26.71C29.7391 26.49 29.6791 26.28 29.6791 26.08C29.6791 26.06 29.7191 25.69 29.7991 24.97C29.9191 23.95 29.9991 22.74 30.0391 21.34C30.0791 20.38 30.0991 19.86 30.0991 19.78C30.0991 19.26 30.0091 18.89 29.8291 18.67C29.6891 18.51 29.6191 18.3 29.6191 18.04C29.6191 17.76 29.7091 17.53 29.8891 17.35C29.9691 17.27 30.0091 17.09 30.0091 16.81C30.0091 16.59 29.9991 16.4 29.9791 16.24V15.73C29.9791 15.27 29.9991 14.66 30.0391 13.9C30.1991 12.24 30.6091 11.27 31.2691 10.99C31.5091 10.87 31.6791 10.76 31.7791 10.66Z" fill="#3237ED"/>
</svg>
