<svg width="291" height="238" viewBox="0 0 291 238" fill="none" xmlns="http://www.w3.org/2000/svg">
<path d="M262.243 70.031L261.971 70.5017C261.408 70.405 261.72 69.3682 261.262 68.9634C261.833 69.0467 261.873 68.3444 261.701 67.9604C261.627 67.7991 261.301 67.8648 261.197 67.7608C259.89 66.4678 259.18 64.6995 257.945 63.2663C256.033 61.0496 252.457 58.0787 249.888 56.4633C247.775 55.136 244.622 53.9321 242.304 53.3254C240.742 52.9177 239.583 52.8205 238.027 52.6003C237.618 52.5412 236.908 52.167 236.771 52.1777C236.235 52.2211 236.234 52.958 235.759 52.0138C234.216 52.1339 232.658 51.7253 231.118 51.8559C230.15 51.9371 229.034 52.682 228.441 51.8906L227.893 52.6136C227.27 52.5747 224.722 53.0696 224.456 52.4503C224.251 51.9732 224.539 51.5853 224.47 51.3319C224.151 50.1565 223.812 48.8505 223.571 47.5859C223.415 46.7743 223.901 46.2834 223.849 45.5043C223.821 45.1227 223.546 44.6947 223.481 44.3006C223.346 43.5248 223.246 41.946 223.003 41.3281C222.859 40.963 222.509 41.2353 222.533 41.0854C223.374 39.9505 222.167 39.1369 222.7 38.1497C221.802 38.1401 222.326 37.0761 222.185 36.5588C222.055 36.0802 221.415 35.8797 221.361 35.343L222.025 34.9662C221.735 34.5084 221.193 34.1831 220.927 33.5904C220.798 33.3117 220.94 33.0391 220.891 32.8861C220.852 32.7719 220.524 32.8987 220.462 32.7682C220.234 32.2782 220.069 30.4982 219.831 29.9129C219.556 29.2354 218.561 28.115 218.316 27.5582C218.15 27.1838 218.304 26.7756 218.172 26.5279C217.98 26.1681 217.431 26.2755 217.353 26.2098C217.244 26.1147 217.432 25.6784 217.291 25.4255C217.188 25.2418 216.816 25.1652 216.655 24.9331C215.653 23.4669 215.995 24.0165 214.857 23.0555C214.52 22.773 213.839 21.7525 213.467 21.5246C213.15 21.3309 212.294 21.5444 212.019 21.2827C211.821 21.0982 211.863 20.679 211.482 20.5026C211.227 20.3829 209.948 20.2916 209.301 20.0099C207.122 19.067 205.814 18.7304 203.487 18.3415C203.289 18.3083 203.097 18.0883 202.877 18.0838C201.769 18.0555 200.577 19.1195 200.582 16.938C199.614 16.921 199.52 18.0348 199.366 18.2086C199.34 18.2383 198.936 18.1252 198.641 18.3071C192.107 22.3842 184.771 30.688 179.489 36.4014C178.345 37.6414 176.348 40.3517 175.223 41.2313C174.867 41.5091 174.541 41.2803 174.226 41.3998C173.958 41.4989 173.823 41.9209 173.62 41.9382C173.24 41.9731 173.058 41.3841 172.867 41.2543C172.533 41.0239 171.599 40.5064 171.118 40.21C170.338 39.7301 169.019 39.7405 168.227 39.1768L167.986 39.6124C167.274 39.6469 166.804 39.0415 166.502 39.0024C166.091 38.9478 165.653 39.1573 165.232 39.1241C164.606 39.0747 161.313 38.8572 161.122 38.7654C161.031 38.7221 161 38.345 160.756 38.226C160.46 38.0798 157.069 37.613 156.576 37.5919C155.82 37.5627 154.637 37.9516 154.058 37.8251C151.985 37.3675 150.957 37.8276 148.91 38.0241C147.555 38.1572 145.817 37.6955 144.424 37.9789C142.379 38.3938 140.12 38.5078 137.912 38.7251C134.03 39.1094 130.835 39.4207 127.043 40.4719C126.723 40.5588 126.287 40.3976 126.013 40.4756C125.754 40.5498 125.676 40.9034 125.446 40.9354C125.257 40.9604 124.653 40.6858 124.369 40.6835L124.131 41.1411C123.24 40.7705 122.778 41.3229 122.132 41.4339C121.133 41.6104 119.636 41.6084 118.713 41.8249C118.002 41.9912 117.392 42.512 116.613 42.6097C116.255 42.654 116.264 42.2965 116.154 42.3226C115.856 42.3957 114.913 43.1806 114.549 43.2869C111.428 44.1903 107.768 45.3379 104.65 46.1006C102.85 46.5398 101.911 46.8133 100.109 47.5781C97.9086 48.5073 95.4601 49.3982 93.2299 50.3697C91.8075 50.9898 90.4475 52.258 88.7953 52.4492L89.0748 52.755C88.456 52.6886 88.098 53.2769 87.7709 53.4223C87.3869 53.5945 85.5343 54.1612 85.1514 54.2122C84.7906 54.261 84.5829 53.913 84.2366 54.0712L84.1842 54.7277C81.8662 55.9044 79.5367 56.9972 77.3213 58.3576C76.9744 58.5688 76.7224 58.9772 76.394 59.1872C75.0025 60.0748 73.3533 60.6808 72.2303 61.9451L71.9092 61.4579C70.8105 63.2295 69.4447 64.4766 67.8601 65.7943C67.5303 66.0689 67.2686 66.6084 66.9591 66.7906C66.494 67.0679 65.9104 67.0335 65.5166 67.6013C64.8443 66.9336 63.8812 66.7679 63.5552 65.8588C62.6567 66.2234 62.9208 65.7626 62.6608 65.5838C61.5881 64.8471 59.7509 64.0495 58.4691 63.5168C58.1239 63.3724 57.6268 63.4204 57.3846 63.2934C57.0637 63.1273 56.9987 62.7066 56.9086 62.6669C56.7462 62.5976 56.3934 62.8708 56.2326 62.7936C56.1505 62.7554 56.0947 62.3965 55.8662 62.2506C55.671 62.1298 55.2347 62.165 54.9346 62.0197C53.9575 61.5518 53.6524 61.1094 52.3811 61.3257L51.842 60.5501C52.048 61.8808 50.9376 60.2665 50.0899 60.8327L50.1255 60.2676C49.674 60.0236 48.6916 60.1767 48.4032 60.0887C48.267 60.0463 48.1261 59.7218 47.8394 59.6258C47.0993 59.3769 45.6929 59.0254 45.0679 59.3121C45.0105 58.5153 44.4976 58.9227 43.9124 58.8132C43.4223 58.7195 42.6887 58.6615 42.3776 58.5872C41.6896 58.4187 40.5402 57.6499 39.9711 57.5436C39.7332 57.5023 38.011 57.9506 37.7118 58.0317C37.5992 58.0623 37.534 57.8079 37.463 57.797C36.0574 57.5737 34.5402 57.5659 33.2368 57.1902C31.8744 57.8507 30.5921 58.361 29.6926 59.6554C29.3443 60.1542 27.8787 65.0026 27.7442 65.8023C27.1998 69.1162 27.5591 74.8978 29.4169 77.749C29.7482 78.2598 30.2132 78.2886 30.4337 78.6142C30.9814 79.4215 31.5741 80.7985 32.221 81.8321C33.6117 84.0619 34.5938 86.2476 35.6929 88.4469C36.0992 89.2624 37.4675 90.5877 37.9433 91.3805C38.2005 91.8133 38.4795 92.9391 38.7753 93.6258C39.0061 94.1564 38.7648 94.9662 38.3412 95.3267C37.8523 95.7389 36.1773 96.2915 35.8701 96.6356C35.6494 96.8806 35.6533 97.2989 35.4239 97.5954C34.3477 98.9906 32.8642 100.054 31.8685 101.314C30.991 102.425 29.3993 105.165 28.386 105.984C28.0299 106.274 27.7032 106.17 27.5825 106.282C26.641 107.157 26.3991 109.399 25.7698 110.45C23.6792 113.941 20.9758 118.781 20.5833 122.836C20.1551 127.275 20.2841 131.623 19.9601 136.097C19.9204 136.633 20.2994 137.097 19.7476 137.64L19.8192 137.904C20.8655 137.582 20.4768 138.322 20.7015 138.635C20.8043 138.777 21.1283 138.788 21.3034 139.141C21.7477 140.04 22.5173 143.24 22.74 144.339C22.7597 144.44 24.0938 144.803 23.3566 145.986C24.1825 145.214 24.3286 146.644 24.7341 147.15C24.9164 147.376 25.4913 147.462 25.6961 147.841C25.787 148.009 25.5505 148.655 25.6996 148.773C25.7805 148.834 26.07 148.801 26.2555 148.97C26.6906 149.362 27.0562 150.264 27.4264 150.598C27.9407 151.059 28.5233 150.95 28.5511 152.084L29.3978 152.225C29.4111 153.067 30.1454 153.741 30.7892 154.262C31.6108 154.923 32.6351 155.718 33.524 156.376C34.0527 156.765 34.9722 156.784 34.7589 157.488C35.5583 157.343 35.8814 158.2 36.2077 158.414C36.3968 158.54 36.7293 158.401 36.9092 158.507C37.1607 158.654 37.6283 159.612 38.1867 159.845C39.1252 160.241 40.6319 159.722 41.2041 161.317C42.5007 160.636 43.6855 162.121 44.5181 162.265C45.4057 162.417 46.757 162.44 47.6692 162.586C48.246 162.678 48.537 163.166 48.9816 163.189C49.7104 163.23 50.0852 162.773 50.6114 162.721C51.1481 162.666 52.4213 163.167 53.2974 163.054C53.9874 162.965 54.746 162.502 55.2418 162.436C55.5224 162.397 56.0934 162.775 56.5207 162.735C57.2164 162.667 57.2967 161.946 57.7996 162.324L57.5822 162.957L57.9934 163.038C56.9951 164.567 56.7254 166.261 56.1625 167.891C55.3832 170.158 54.44 172.322 54.0951 174.728C53.8032 176.772 54.0325 178.912 53.8375 180.937C53.4615 184.844 52.227 188.107 52.6842 192.23C53.2507 197.355 58.4146 208.536 61.9787 212.314C63.2593 212.968 65.2532 215.945 66.3993 216.242C66.6474 216.307 66.9707 216.148 67.0323 216.18C67.2909 216.325 67.3127 216.712 67.5165 216.906C67.6085 216.995 69.4255 217.885 69.7425 218.037C70.4338 218.371 74.5415 219.195 75.504 219.289C76.1794 219.355 77.473 219.193 78.2173 219.346C78.5255 219.41 78.8648 219.881 79.3133 219.835C79.986 219.766 79.5042 219.647 80.2773 219.781C81.6647 220.021 81.0434 219.471 81.4398 219.345C81.7281 219.252 82.4375 219.736 82.5625 219.751C83.5013 219.855 84.8299 219.404 85.6794 219.332C85.8128 219.322 85.8204 219.574 85.9266 219.575C86.5042 219.573 86.9441 218.744 87.4189 218.641C87.7801 218.566 88.5925 219.207 89.1215 218.943C88.9983 218.572 89.0718 218.132 89.4166 217.899C89.5706 218.439 90.0982 219.256 90.1916 218.263C90.5584 218.069 90.4681 218.419 90.5956 218.471C91.1281 218.693 91.0841 218.35 91.3388 218.258C92.2252 217.946 93.2635 217.804 93.9077 217.059L94.3624 217.328L94.4883 216.72C94.7664 216.561 94.6545 217.026 94.8771 217.011C95.6803 216.963 95.8747 216.023 96.1237 215.91C96.3928 215.787 97.3433 216.52 97.6575 215.282C97.7943 215.536 98.3017 215.693 98.5225 215.588C98.6364 215.534 98.729 214.232 99.7743 215.286C99.8674 215.072 100.021 214.901 100.224 214.786C101.557 214.016 102.199 213.933 102.977 212.815C103.469 212.107 103.42 211.871 104.529 211.88C104.125 211.616 104.335 210.663 104.665 210.513C104.887 210.412 105.335 210.88 105.943 210.503C106.023 210.451 106.838 209.486 107.011 209.288C107.13 209.153 107.092 208.846 107.197 208.719C107.607 208.211 108.83 208.069 108.678 207.298L108.95 207.605L109.218 207.533C110.26 205.83 111.922 204.479 112.652 202.615C113.242 202.326 114.113 201.259 114.502 200.647C115.592 198.939 117.648 195.389 118.422 193.592C118.792 192.739 119.329 189.93 119.702 189.477C119.951 189.172 120.29 189.11 120.65 189.046C120.806 189.816 121.479 190.223 121.96 190.811C122.045 190.916 121.981 191.168 122.002 191.173C122.482 191.315 122.242 190.666 122.511 190.487C123.784 189.639 124.148 191.355 124.808 192.09C124.899 192.19 125.244 192.108 125.352 192.297C125.481 192.523 125.47 193.527 125.872 193.924C126.084 194.132 127.453 194.417 127.739 194.567C128.013 194.712 129.909 196.003 130.101 196.182C132.912 198.842 135.984 200.196 139.223 202.19C139.458 202.333 139.515 202.681 139.593 202.72C139.72 202.784 140.169 202.556 140.492 202.605C140.87 202.661 141.122 203.174 141.375 203.242C142.24 203.479 142.106 203.376 143.01 203.754C144.007 204.171 144.375 204.106 145.311 204.229C146.268 204.359 148.568 205.76 149.619 205.974C150.064 206.065 150.284 205.846 150.562 205.884C150.966 205.937 151.238 206.298 151.661 206.353C152.604 206.475 153.106 205.927 153.57 205.869C153.745 205.848 153.835 206.206 153.985 206.259C154.164 206.32 156.336 205.538 156.951 205.576C157.273 205.594 157.395 206.056 157.722 206.077C158.252 206.111 158.978 205.664 159.738 205.723C160.058 205.749 160.696 206.302 161.238 206.294L161.493 205.843C161.975 205.626 162.47 206.1 162.729 206.067C162.923 206.045 163.126 205.623 163.497 205.485C164.094 205.263 165.432 205.489 165.426 204.784C165.905 204.753 167.091 205.266 167.447 205.184C167.557 205.158 168.689 204.693 168.726 204.637C168.791 204.54 168.572 204.01 168.836 203.912C169.942 203.994 170.861 203.117 171.714 202.64C174.079 201.319 176.594 199.529 178.479 197.594C178.746 197.321 179.652 196.263 179.732 196.207C180.176 195.894 181.167 195.939 181.839 194.906C181.977 194.691 181.827 194.294 181.913 194.191C182.048 194.034 182.998 193.942 183.415 193.462C183.508 193.358 184.475 192.144 184.516 192.06C184.609 191.888 184.455 191.582 184.588 191.418C184.832 191.106 185.614 191.079 185.961 190.841C186.441 190.518 188.518 187.911 188.857 187.35C189.029 187.066 190.66 181.489 190.716 181.001C190.952 178.987 190.204 176.897 189.427 175.09L189.724 174.806C188.501 173.475 189.85 172.417 189.777 171.534C189.739 171.102 189.43 170.004 189.228 169.62C188.901 169.002 188.415 169.176 188.367 169.136C188.294 169.076 188.528 168.824 188.52 168.614C188.516 168.487 188.265 168.26 188.308 168.196C188.395 168.07 188.981 168.308 188.789 167.502C188.672 167.016 188.214 166.986 188.072 166.613C187.924 166.222 188.121 165.5 187.836 165.048L187.274 165.401C186.997 164.909 186.358 165.086 186.15 164.935C185.905 164.756 186.1 164.333 186.002 164.121C185.867 163.833 184.66 163.424 185.31 162.461L185.596 162.78C186.435 162.054 186.069 162.739 186.332 162.902C186.523 163.02 187.594 163.361 187.942 163.682C189.21 164.849 190.458 165.421 191.473 166.491C192.182 167.239 192.204 167.082 192.831 167.555C193.092 167.752 194.194 168.806 194.299 168.83C194.861 168.965 195.007 168.751 195.715 169.383C196.443 170.036 196.293 169.774 196.72 170.066C197.009 170.268 197.581 171.08 197.874 171.299C198.683 171.899 199.682 171.681 200.133 172.772L201.27 172.648C201.584 173.666 202.299 172.97 202.473 173.028C202.598 173.07 202.963 173.61 203.373 173.729C203.69 173.824 204.058 173.536 204.469 173.643C204.859 173.745 205.483 174.388 205.995 174.45C206.319 174.49 206.517 174.244 206.708 174.267C206.938 174.292 207.215 174.685 207.528 174.684C207.871 174.681 208.123 174.345 208.236 174.356C208.259 174.357 208.326 174.645 208.58 174.678C209.567 174.803 210.994 174.76 211.925 174.779C215.009 174.838 217.824 174.517 220.753 173.934C220.978 173.888 221.867 173.027 222.466 172.868C222.741 172.794 222.925 173.042 223.26 172.872C223.507 172.748 223.653 172.161 224.627 171.825C226.538 171.167 228.335 170.437 230.06 169.191C230.342 168.99 230.506 168.522 230.644 168.458C230.842 168.367 231.09 168.655 231.331 168.555C231.62 168.436 231.778 167.195 232.564 168.21L232.865 168.234C233.204 168.146 233.357 167.416 233.788 167.235C234.205 167.058 235.448 166.989 235.883 166.781C236.585 166.446 239.381 164.634 239.86 164.062C240.117 163.754 240.207 163.628 240.059 163.192C240.381 163.07 240.288 163.591 240.582 163.726C240.896 163.868 241.32 163.091 241.687 162.841C242.26 162.447 243.219 162.097 243.813 161.641C244.573 161.057 244.641 159.58 245.892 160.223L246.467 159.53L246.839 159.815L246.529 160.092C247.61 160.218 247.341 159.312 247.615 158.83C248.215 157.768 250.362 156.309 251.287 155.514C252.295 154.647 253.035 153.475 253.908 152.445C254.268 152.019 254.93 151.726 255.2 151.218C255.566 150.522 255.491 148.6 255.484 147.737C255.466 146.057 255.088 146.099 255.719 144.397C255.815 144.141 255.678 143.732 255.765 143.591C255.845 143.456 256.221 143.422 256.295 143.221C256.406 142.907 256.015 142.288 256.42 141.925C256.443 141.79 256.156 141.97 256.014 141.793C255.721 141.427 254.616 140.166 254.523 139.95C254.065 138.857 254.627 138.437 254.544 137.979C254.5 137.731 253.872 137.353 253.776 136.861C253.715 136.538 254.031 136.241 253.987 135.841C253.92 135.247 252.981 132.66 252.625 132.171C252.379 131.834 251.686 131.383 251.585 131.082C251.507 130.85 251.788 130.619 251.664 130.425C251.435 130.068 250.672 129.901 250.618 129.799C250.421 129.437 250.579 128.903 250.479 128.522C250.407 128.243 250.048 126.848 250.009 126.76C249.945 126.607 249.571 126.735 249.38 126.489C248.619 125.509 248.194 124.011 247.575 123.026C247.355 122.674 246.765 122.297 246.625 122.018C246.415 121.591 246.804 121.172 246.629 120.736C246.514 120.45 245.351 118.615 245.114 118.34C244.586 117.731 243.907 117.722 243.691 117.524C243.338 117.197 242.836 115.961 242.217 115.476C241.661 115.041 240.1 114.86 240.36 113.965L239.672 114.243C239.427 113.603 239.332 113.126 239.79 112.575C238.781 112.293 237.709 112.826 236.797 112.042C236.929 111.401 237.187 111.056 237.862 110.925C238.673 110.766 239.23 110.717 240.065 110.743C240.807 110.765 241.248 110.774 242.041 110.717C242.149 110.711 242.496 111.153 242.881 111.154C242.941 111.153 243.987 110.953 244.042 110.934C244.155 110.892 244.089 110.634 244.209 110.534C245.742 109.249 246.48 109.797 248.113 109.018C250.111 108.068 251.986 106.807 253.666 105.422C254.364 104.847 254.986 104.773 255.506 104.322C257.628 102.492 259.599 99.1424 261.041 96.8279C261.308 96.4041 262.481 94.7372 262.511 94.5703C262.678 93.6258 261.941 92.6772 263.558 92.3707L263.054 91.9332C263.473 91.8196 264.636 90.6084 264.145 90.2882L263.348 90.8862C262.899 89.6779 263.443 89.1903 264.619 89.1925C264.668 89.1226 264.043 88.6007 264.468 88.2738C264.9 87.945 264.691 88.9576 265.144 88.6646C265.695 88.3113 264.668 88.1477 265.017 87.8338L265.672 87.7394L265.862 87.4119C265.143 87.3351 265.825 86.398 265.546 86.247C265.255 86.0918 264.913 86.5736 264.959 86.8938L264.733 87.023L263.529 86.541C263.424 85.931 264.221 84.2981 264.236 83.7838C264.251 83.3793 263.756 82.9468 263.71 82.6947C263.644 82.3272 263.467 80.5465 263.463 80.1547C263.455 79.4428 263.985 79.0837 263.914 78.4305C263.843 77.7658 263.141 77.4764 263.534 76.6972C262.816 76.7372 263.216 75.7632 263.085 75.0847C262.823 73.7276 262.323 72.3444 262.013 70.9927C262.011 70.8193 262.104 70.6167 262.233 70.5062C262.518 70.2626 263.124 70.3399 263.054 69.9963L262.213 70.0166L262.243 70.031ZM161.941 92.0403C162.333 91.8962 162.747 91.7801 162.919 91.843C163.016 91.8808 163.184 92.1942 163.335 92.5388C162.867 92.3597 162.398 92.1921 161.941 92.0403ZM196.224 101.353C196.889 106.564 195.336 112.229 192.396 116.59C191.31 118.199 190.295 119.846 189.192 121.407C187.968 123.137 186.927 126.261 185.685 128.022C185.317 128.545 184.592 128.852 184.137 129.515C183.501 130.443 183.041 131.94 182.3 132.896C179.669 136.293 176.63 138.39 173.375 140.917C173.244 141.02 173.32 141.245 173.193 141.321C172.901 141.495 171.497 141.906 171.404 142.011L171.684 142.316C170.933 142.21 170.912 142.662 170.504 142.927C167.298 145.021 163.755 146.711 160.42 148.345C158.643 149.217 157.475 149.481 155.834 150.13C155.519 150.253 155.006 150.63 154.337 150.91C153.676 151.187 153.667 151.893 152.984 151.046L152.623 151.137C152.642 151.846 152.239 151.419 151.765 151.551C151.279 151.683 151.266 151.803 150.516 151.977C149.303 152.253 148.148 152.619 147.042 152.945C146.29 153.168 145.293 152.808 145.198 152.833C145.015 152.883 144.571 153.642 143.894 153.709L143.655 153.191L143.353 153.859C142.573 154.286 141.364 153.575 140.645 153.834C140.404 153.922 140.295 154.231 140.148 154.287C139.14 154.666 137.397 154.912 136.36 154.921C135.765 154.928 135.431 154.24 134.744 155.427L133.603 155.148C133.931 155.773 133.398 155.842 132.904 156.108C132.841 155.43 131.565 155.349 130.983 155.363C129.903 155.395 129.753 155.954 129.506 156.021C129.38 156.055 129.089 155.722 128.811 155.714C128.48 155.706 128.138 155.908 127.791 155.908C126.918 155.91 125.872 155.926 125.087 155.874C124.01 155.804 123.937 154.448 122.652 155.435L122.01 154.922C120.846 155.657 120.866 154.923 120.08 154.576C117.625 153.493 114.855 153.546 112.446 152.31C110.944 151.538 110.114 150.902 108.406 150.122C107.514 149.715 107 148.864 106.427 148.562C106.079 148.381 105.583 148.462 105.369 148.298C105.044 148.05 105.107 147.571 104.731 147.299C104.275 146.97 103.153 146.817 102.507 146.441C101.131 145.643 100.056 144.355 98.777 143.428C97.6712 142.625 97.6163 142.047 96.8827 141.32C96.7428 141.181 96.0829 141.004 95.9468 140.879C95.7242 140.671 95.4692 139.814 95.2839 139.619C94.4475 138.75 92.4834 137.401 91.7107 136.489C90.6525 135.234 89.5032 133.491 88.4452 132.153C87.594 131.077 87.4675 130.945 86.3518 130.397C85.663 130.059 85.1844 129.033 85.6699 128.315C86.8261 127.299 88.1411 126.436 89.313 125.449C90.0142 124.859 92.4067 122.354 93.0273 122.288C93.3027 122.259 93.6007 122.522 93.8138 122.43C94.1226 122.301 95.1644 121.043 95.5512 120.7C97.5103 118.952 99.4769 117.316 101.339 115.39C103.018 113.657 105.162 112.184 107.057 110.646C107.242 110.494 107.427 110.27 107.62 110.048C107.666 110.05 107.714 110.06 107.758 110.055C107.851 110.552 107.339 110.891 107.178 111.203C106.439 112.631 105.928 114.02 105.248 115.482C104.849 116.338 104.304 116.807 104.301 117.983C104.299 118.24 104.475 118.945 104.83 118.803L104.88 119.043C104.494 119.11 104.599 119.622 104.669 119.924C104.768 120.331 104.95 120.15 105.001 120.257C105.278 120.858 104.813 121.094 105.635 121.827C106.282 122.399 107.186 122.709 107.984 122.882C108.08 122.901 108.107 123.056 108.22 123.067C109.09 123.156 110.9 122.919 111.449 122.172C111.584 121.988 111.533 121.742 111.633 121.556C112.648 119.641 113.096 118.314 113.892 116.386C114.72 114.382 114.883 114.761 116.078 116.115C116.53 116.627 116.811 117.132 117.208 117.592C118.976 119.64 122.48 122.082 125.316 121.505C126.577 121.25 126.889 120.743 127.665 119.871C127.769 119.752 128.005 119.703 128.038 119.645C128.091 119.547 127.982 119.259 128.044 119.069C128.246 118.421 128.712 117.894 128.754 117.104C128.759 116.997 128.59 115.887 128.563 115.826C128.522 115.732 128.311 115.804 128.301 115.739C128.218 115.126 127.545 113.356 127.181 112.767C126.689 111.97 125.918 111.424 125.367 110.829C125.191 110.639 125.152 110.272 124.947 110.063C124.754 109.866 124.368 109.933 124.356 109.596L128.055 108.203C128.91 107.204 130.156 106.224 131.046 105.091C131.732 104.221 132.282 103.395 132.525 102.355C132.732 101.475 131.323 99.7187 130.584 99.4052C128.628 98.5719 124.951 98.5832 122.965 99.3145C122.697 99.4136 121.473 100.278 121.283 100.16C121.313 99.4792 121.444 98.8052 121.498 98.1257C121.549 97.5072 121.578 96.944 121.475 96.4127C121.316 95.5905 121.187 94.904 120.988 94.2551C121.539 93.5542 121.879 93.1219 121.908 93.0913C122.169 92.8278 122.654 92.8172 122.851 92.4577C123 92.1867 123.277 90.8269 123.518 90.2666C125.26 86.2008 127.301 81.593 128.212 77.2201C128.514 75.7704 128.659 70.7475 130.343 70.2681C131.353 70.455 131.954 71.9168 132.541 72.7171C132.721 72.963 133.162 72.9038 133.018 73.5436L133.736 73.3488C133.664 74.1278 133.916 74.6526 134.271 75.3196L134.709 74.8191L134.692 75.5642L133.831 75.8282C133.875 76.5607 134.223 76.5643 134.84 76.7068L134.732 75.9615C135.783 75.0303 135.182 76.2816 135.241 76.4998C135.283 76.6547 135.769 76.9006 135.756 77.2291C136.376 76.5737 136.667 77.1747 137.242 77.4003C137.492 77.4988 137.794 77.4433 138.05 77.5779C138.433 77.7799 140.082 79.3995 139.952 79.9258L140.728 80.0289C140.8 80.1796 140.626 80.5139 140.745 80.6478C140.809 80.7172 142.202 81.3255 142.47 81.4909C143.268 81.981 143.799 82.5472 144.446 83.0518C144.999 83.4875 146.378 83.4043 146.679 84.3997C146.776 84.7171 152.685 87.3912 159.079 90.1529C158.721 90.337 155.751 91.7699 155.718 92.066C155.309 92.313 154.931 92.5514 154.614 92.747C154.446 92.8529 152.514 94.6579 152.312 94.8866C152.242 94.9659 151.766 95.6468 151.751 95.6886C151.68 95.9156 151.92 96.0736 151.886 96.1318C151.868 96.1631 151.699 96.2089 151.632 96.3102C151.574 96.4016 151.614 96.5344 151.575 96.5865C151.512 96.6753 151.28 96.7117 151.169 96.8175C150.942 97.0263 151.055 97.4681 150.519 97.47C150.908 97.8594 150.251 98.1547 150.164 98.3483C150.11 98.4688 150.249 98.5634 150.226 98.6603C150.208 98.7482 149.963 98.9583 149.886 99.0925C148.907 100.805 148.217 102.3 147.97 104.188C147.899 104.709 147.849 104.689 147.731 105.106C147.562 105.693 147.645 108.02 147.808 108.58C147.918 108.955 148.118 108.954 148.251 109.099C148.342 109.195 148.293 109.322 148.366 109.411C148.692 109.818 151.134 110.712 151.772 110.766C153.752 110.935 156.234 109.083 157.657 108.006C160.005 106.228 162.311 104.129 164.072 101.917C165.05 100.688 165.569 99.6896 166.171 98.3286C166.492 97.603 166.805 96.8343 167.101 96.0739C167.329 95.4943 167.376 95.1112 167.501 94.5143C167.533 94.3659 167.384 93.9266 167.412 93.7527C167.414 93.7332 167.428 93.7143 167.434 93.6939C171.541 95.3945 174.693 96.6365 174.959 96.587C175.078 96.5661 176.758 97.4252 177.167 97.5108C177.725 97.6315 178.399 97.4712 178.729 97.5593C179.112 97.6631 179.963 98.445 180.566 98.4666C180.967 98.4825 181.196 98.2276 181.48 98.2148C181.935 98.1934 183.993 98.0206 184.119 98.0544C184.229 98.0849 185.537 99.215 185.476 99.5188C185.949 99.0883 185.309 98.5402 186.239 98.5447C186.67 98.9607 187.809 98.5497 188.488 98.6149C188.941 98.6581 189.571 99.1825 189.8 99.2036C189.989 99.2201 190.767 98.8128 191.281 98.7601C191.876 98.6969 192.492 99.0173 192.971 98.9856C193.729 98.9387 193.749 98.9975 194.324 99.0002C194.918 99.0017 195.627 98.7487 196.254 98.8017C197.338 99.5276 196.166 100.873 196.227 101.348L196.224 101.353Z" fill="#F2A4EB"/>
<path d="M22.7229 147.676L22.6724 146.961L22.2824 147.501L22.6568 148.31C23.1382 148.232 23.3601 147.56 22.7229 147.676Z" fill="#F2A4EB"/>
<path d="M20.3691 139.889L20.1932 139.937L20.3048 141.059L20.6603 140.962L20.3691 139.889Z" fill="#F2A4EB"/>
<path d="M149.017 126.827C148.295 126.826 148.671 126.346 148.451 125.911C148.287 125.585 147.754 125.541 147.685 125.427C146.541 123.52 145.5 121.286 144.262 119.676C143.871 119.166 143.966 118.793 143.704 118.425C143.613 118.299 141.568 116.371 141.433 116.291C140.854 115.957 140.303 116.208 139.732 115.804C139.276 115.78 139.269 116.323 138.961 116.527C138.715 116.692 138.35 116.696 138.059 116.919C137.764 117.142 135.68 119.627 135.611 119.903C135.36 122.151 135.477 124.367 135.485 126.64C135.497 131.223 135.462 136.107 135.99 140.547C136.031 140.91 135.738 141.208 135.911 141.732C136.438 143.342 140.154 141.941 140.873 140.998C141.717 139.889 141.217 133.922 141.17 132.318C141.152 131.609 141.254 130.912 141.232 130.234C141.211 129.541 140.738 127.104 141.061 126.578C141.289 126.21 141.384 126.585 141.501 126.727C142.19 127.564 142.339 128.449 142.792 129.241C143.796 130.994 144.921 132.634 145.84 134.463C146.031 134.846 146.041 135.342 146.202 135.627C146.292 135.791 146.606 135.698 146.722 135.818C146.983 136.084 147.033 136.712 147.517 136.562L147.774 136.103C148.396 136.932 148.631 136.199 149.397 136.166C149.822 136.145 149.924 136.48 150.006 136.461C151.508 136.107 151.621 133.556 151.373 132.335C151.238 131.672 149.81 128.761 149.4 128.015C149.115 127.495 148.661 127.66 149.016 126.823L149.017 126.827Z" fill="#F2A4EB"/>
<path d="M163.612 93.4912C163.455 94.0136 163.602 94.261 163.518 94.7598C163.503 94.8583 163.312 94.8798 163.291 94.9952C163.221 95.392 163.108 95.7852 163.13 96.1838L162.895 96.2247C162.858 96.3519 162.902 96.5023 162.855 96.6209C162.696 97.008 162.272 98.1054 162.033 98.3817C161.927 98.505 161.877 98.5599 161.684 98.5709C161.55 98.4408 161.612 98.1672 161.577 98.0785C161.566 98.0513 161.284 97.8747 161.153 97.6305C160.882 97.1334 160.625 96.3796 160.316 95.9081C160.213 95.7544 159.98 95.6892 159.902 95.5103C159.808 95.3052 159.852 95.0212 159.756 94.8356C159.742 94.8093 159.287 94.4416 159.259 94.4227C159.096 94.3233 158.371 94.297 158.83 94.0402L158.677 93.7947C159.018 93.8268 159.011 93.6058 159.091 93.5538C159.62 93.2177 160.635 92.6287 161.191 92.3532C161.525 92.1908 162.612 91.726 162.923 91.8419C163.133 91.9209 163.682 93.2757 163.619 93.4893L163.612 93.4912Z" fill="#FFF7EC"/>
</svg>
