<svg width="57" height="47" viewBox="0 0 57 47" fill="none" xmlns="http://www.w3.org/2000/svg">
<rect x="7" width="40" height="40" rx="20" fill="#FFF7EC"/>
<path d="M25.8498 11.89C26.2498 11.49 26.5598 11.29 26.7798 11.29C26.7998 11.29 26.8298 11.3 26.8698 11.32C26.9298 11.32 26.9798 11.32 27.0198 11.32C27.3398 11.36 27.5598 11.42 27.6798 11.5C27.7798 11.54 27.9598 11.75 28.2198 12.13C28.4798 12.49 28.6098 12.72 28.6098 12.82C28.6098 12.92 28.6698 12.99 28.7898 13.03C28.9298 13.07 28.9198 13.3 28.7598 13.72C28.6198 14.08 28.3798 14.37 28.0398 14.59C27.7198 14.79 27.3698 14.89 26.9898 14.89C26.5298 14.89 26.1398 14.74 25.8198 14.44C25.5398 14.16 25.3998 13.88 25.3998 13.6C25.3998 13.5 25.3798 13.36 25.3398 13.18C25.3198 12.98 25.3098 12.84 25.3098 12.76C25.3098 12.54 25.4898 12.25 25.8498 11.89ZM25.5798 17.8C25.6598 17.7 25.8198 17.65 26.0598 17.65C26.4198 17.65 26.7398 17.75 27.0198 17.95L27.4698 18.25L27.3798 19.51C27.3198 20.49 27.2898 21.23 27.2898 21.73C27.2898 22.39 27.3698 22.96 27.5298 23.44C27.7698 24.14 28.0998 24.49 28.5198 24.49C28.8398 24.49 29.2498 24.27 29.7498 23.83C30.1098 23.49 30.4598 23.32 30.7998 23.32C31.6598 23.32 32.0898 23.48 32.0898 23.8C32.0898 24.02 31.9498 24.39 31.6698 24.91C31.4098 25.43 31.1798 25.76 30.9798 25.9C30.7398 26.04 30.4998 26.25 30.2598 26.53C30.0198 26.77 29.5798 26.9 28.9398 26.92H28.7598C27.8198 26.92 27.1098 26.76 26.6298 26.44C26.1698 26.12 25.7298 25.5 25.3098 24.58C25.0498 24 24.9098 23.06 24.8898 21.76V21.07C24.8898 20.13 24.9798 19.4 25.1598 18.88C25.3598 18.24 25.4998 17.88 25.5798 17.8Z" fill="#3237ED"/>
</svg>
