<svg width="65" height="59" viewBox="0 0 65 59" fill="none" xmlns="http://www.w3.org/2000/svg">
<path d="M64.5584 27.4696C64.3324 28.7925 64.0328 29.2892 63.0922 30.3759C60.4924 33.3729 58.3275 34.1892 54.8576 35.5376C53.907 35.9074 52.855 36.0403 51.693 36.1527C50.4124 36.2768 49.1221 36.2602 47.8491 36.4328C47.6945 36.8319 49.7303 38.8322 50.0063 39.2979C52.063 42.7754 53.3792 49.6545 52.5279 53.5953C52.2058 55.0842 49.4517 58.3154 47.7526 58.2241C45.7426 58.1168 44.0193 57.3606 42.1648 56.3727C39.746 55.0855 37.498 53.0839 35.3422 51.8198L31.459 45.3606C30.841 45.4936 31.1027 46.1957 30.8048 46.6222C30.4879 47.0771 29.8242 47.2681 29.5313 47.6642C28.6246 48.8977 27.8826 50.5274 26.5839 51.7132C25.6178 52.5929 22.5778 54.4483 21.4743 54.811C21.3595 54.8491 21.5664 55.2212 21.4055 55.3306C21.3047 55.399 19.3124 56.0897 19.1091 56.1169C17.6367 56.3019 16.4972 55.6063 15.2216 55.4464C14.8452 55.4 14.3529 55.6979 14.151 55.6313C14.0301 55.592 13.8566 55.1676 13.602 55.0105C11.7151 53.8513 10.6664 53.4387 9.74764 51.1647C7.68175 46.0509 10.966 38.6705 14.1339 34.6729C14.8447 33.7773 15.683 33.0826 16.4732 32.0635C18.5606 29.3716 19.2048 28.9403 15.2004 28.064C11.3508 27.222 8.73008 26.826 4.82672 25.5733C4.44 25.4494 4.00177 25.629 3.61578 25.4375C2.03911 24.6566 0.961261 21.349 0.816805 19.6931C0.797558 19.4766 1.07471 19.3783 1.07916 19.1899C1.11492 17.6367 1.36782 15.8375 2.20277 14.4356C3.26863 12.647 3.87004 13.4407 4.88553 12.7179C5.0642 12.5916 4.66299 12.3075 5.38199 11.9868C5.91116 11.7498 6.82434 11.3823 7.08434 12.0852L7.51109 11.9131C7.12374 11.2997 8.36424 10.7347 8.84293 10.6469C11.023 10.2548 12.0802 11.1186 13.8115 11.5785C16.7562 12.3594 19.5139 12.8478 22.4176 13.7475C23.0548 13.9459 23.862 14.787 24.7502 14.4484C24.59 13.8271 24.7969 13.0939 24.9761 12.5035C26.3126 8.08824 28.4037 2.28672 33.3049 0.839622C33.6342 0.743121 35.4687 0.840825 35.9301 0.784862C36.7274 0.687888 37.3488 0.115513 38.507 0.312621C39.6859 0.513079 42.2126 3.38659 42.7037 4.5045C44.0177 7.49658 43.3511 10.1683 44.0715 12.7013C44.604 14.5715 45.2551 13.6668 46.7955 13.9184C49.2284 14.3149 50.1664 14.4798 52.5326 14.4933C55.6493 14.5116 60.252 14.2867 62.4929 17.1021C63.9121 18.8837 63.1229 18.8231 63.405 20.3241C63.7241 22.0203 64.868 25.1109 64.9159 26.803C64.9259 27.1191 64.5936 27.269 64.5602 27.4687L64.5584 27.4696Z" fill="#F2A4EB"/>
</svg>
