<svg width="64" height="58" viewBox="0 0 64 58" fill="none" xmlns="http://www.w3.org/2000/svg">
<path d="M60.774 17.3081C61.4349 18.1378 61.4233 18.3509 61.4257 18.4128C61.4312 18.5538 61.4126 18.5751 61.394 18.9313C61.3825 19.1516 61.3829 19.4062 61.4202 19.7137L61.4714 20.0399L61.471 20.0412C61.6385 20.9311 62.021 22.1853 62.3336 23.3121C62.636 24.4021 62.8735 25.375 62.9291 26.061C62.917 26.0755 62.904 26.0918 62.8902 26.1093L62.6917 26.2014L62.6033 26.7183C62.5011 27.3167 62.3949 27.6525 62.2439 27.9434C62.1247 28.1731 61.9611 28.4071 61.6941 28.7327L61.3904 29.0922C59.3041 31.497 57.5704 32.3573 54.8909 33.4205L53.6808 33.8939C53.0864 34.1251 52.4264 34.252 51.65 34.3478L50.833 34.4363C50.2317 34.4946 49.629 34.5198 48.9836 34.5529C48.3501 34.5855 47.6836 34.6253 47.0127 34.7163L46.4271 34.7954L46.2141 35.3454C46.1142 35.6031 46.1335 35.837 46.1574 35.9724C46.1826 36.1152 46.2286 36.2373 46.2677 36.3261C46.3458 36.5029 46.4536 36.6737 46.5527 36.8171C46.7557 37.1108 47.0304 37.4421 47.2912 37.7448C47.5505 38.0456 47.8406 38.3681 48.05 38.607C48.1597 38.7322 48.25 38.8378 48.3192 38.9224C48.3726 38.9878 48.4 39.0221 48.4085 39.0338L48.4081 39.0351C49.3382 40.6078 50.1389 43.0305 50.5989 45.5687C51.0309 47.9531 51.1397 50.3127 50.8387 52.0464L50.7734 52.3835C50.732 52.5752 50.5791 52.9293 50.2783 53.395C49.9899 53.8413 49.6086 54.3238 49.1868 54.764C48.7627 55.2067 48.3212 55.5814 47.9175 55.8334C47.5962 56.0339 47.364 56.1163 47.2199 56.1421L47.1047 56.1515C45.5729 56.0696 44.2058 55.5575 42.6852 54.79L42.0236 54.4457L42.0227 54.4461C40.8999 53.8485 39.8016 53.0764 38.6846 52.2693C37.6625 51.5307 36.6084 50.7511 35.5681 50.12L31.8757 43.9766L31.5072 43.3638L30.8086 43.5148C30.4422 43.5936 30.1215 43.784 29.8966 44.0899C29.6986 44.3594 29.6307 44.6466 29.5983 44.8087C29.5812 44.8941 29.5672 44.98 29.5585 45.036C29.5484 45.1004 29.5424 45.1401 29.5352 45.1739C29.5342 45.1787 29.5327 45.1834 29.5318 45.1873C29.4937 45.226 29.4096 45.2923 29.2025 45.4242C29.0462 45.5236 28.6995 45.7266 28.4281 46.0291L28.3176 46.1643L28.3153 46.1665C27.8491 46.8009 27.3878 47.5918 26.9771 48.2239C26.5388 48.8984 26.0925 49.5064 25.5486 50.0034L25.5478 50.0038C25.1493 50.3666 24.2357 50.9972 23.238 51.6035C22.3556 52.1398 21.5347 52.58 21.0618 52.7741L20.8811 52.8418L20.8781 52.8421C20.7284 52.8918 20.5865 52.9768 20.4674 53.0963C20.3514 53.2126 20.2804 53.3389 20.237 53.4466C20.2175 53.4951 20.2026 53.5426 20.1914 53.5872C20.0426 53.6403 19.8768 53.7007 19.708 53.7589C19.4482 53.8483 19.1877 53.936 18.9831 54.0017C18.8806 54.0346 18.7971 54.0607 18.7366 54.0784C18.7227 54.0824 18.7111 54.0854 18.7023 54.0879C18.1849 54.1459 17.7019 54.0603 17.1429 53.9084C16.6864 53.7844 16.066 53.5759 15.4352 53.4651L15.1646 53.4249L15.1624 53.4248C14.9227 53.3953 14.706 53.4235 14.5516 53.4543C14.4927 53.466 14.4355 53.4803 14.3818 53.4943C14.3803 53.4926 14.3786 53.4907 14.3772 53.489C14.3113 53.4127 14.2189 53.3169 14.0999 53.2257L13.9714 53.1368L13.9697 53.1354C12.9692 52.5208 12.3692 52.2047 11.8485 51.7525C11.4433 51.4006 11.0857 50.9575 10.732 50.1821L10.581 49.8291C9.69075 47.6253 9.92088 44.8198 10.8323 41.9832C11.6805 39.3435 13.077 36.8116 14.4746 34.9578L14.7538 34.5967C15.0679 34.2011 15.4122 33.8464 15.8123 33.4303C16.1058 33.1252 16.4229 32.7922 16.7424 32.414L17.0623 32.0201C17.5509 31.3899 18.0146 30.8173 18.3262 30.3546C18.486 30.1173 18.6393 29.8625 18.7453 29.5991C18.8516 29.3351 18.9366 28.9999 18.8841 28.6292C18.7675 27.8074 18.0929 27.3913 17.5675 27.1614C17.1449 26.9765 16.5958 26.8152 15.9329 26.6551L15.2332 26.4954C11.6315 25.7076 9.21466 25.3309 5.81149 24.2872L5.11702 24.0691L5.11661 24.0682C4.90343 23.9999 4.70591 23.9808 4.5535 23.9754C4.41327 23.9704 4.26262 23.9777 4.18942 23.9796C4.10789 23.9818 4.06271 23.9784 4.04182 23.9771C3.85697 23.8786 3.62174 23.6745 3.36317 23.3199C3.10015 22.9592 2.85229 22.5 2.63374 21.9897C2.2499 21.0934 1.99601 20.1312 1.89655 19.439C1.90023 19.4337 1.9051 19.4291 1.9088 19.4236C1.986 19.3088 2.08733 19.1213 2.11617 18.873L2.1233 18.7631L2.12419 18.7627L2.14644 18.2076C2.21929 17.0006 2.44935 15.7744 2.96439 14.795L3.08838 14.5727C3.31554 14.1916 3.48323 14.0087 3.59066 13.9175C3.68191 13.8401 3.75102 13.8097 3.83919 13.7849C3.95769 13.7519 4.76366 13.6742 5.4496 13.186L5.44919 13.1851C5.62885 13.0573 5.77106 12.879 5.85061 12.6629C5.87028 12.6094 5.88409 12.5573 5.8944 12.509C5.97382 12.4752 6.05226 12.4428 6.12999 12.4158C6.15643 12.4067 6.18211 12.3998 6.20537 12.3927L6.45203 13.0609L7.40696 12.6758L7.82695 12.5067L8.93883 12.0584L8.56336 11.4629C8.60546 11.4416 8.64933 11.42 8.69493 11.4007C8.81954 11.3482 8.91014 11.3232 8.94029 11.317C9.83253 11.1565 10.4692 11.2509 11.0882 11.4354C11.4195 11.5341 11.7386 11.6562 12.1249 11.7993C12.406 11.9034 12.7135 12.0147 13.0498 12.1172L13.396 12.2159L13.3965 12.2168C14.8639 12.606 16.2898 12.9232 17.6741 13.2469C19.0663 13.5725 20.431 13.9069 21.8241 14.3384C21.8673 14.3519 21.951 14.3905 22.1285 14.491C22.2749 14.5739 22.5075 14.7129 22.7357 14.825C23.2005 15.0532 23.9407 15.3249 24.7726 15.0079L25.608 14.69L25.385 13.8246C25.3282 13.604 25.3665 13.2979 25.4707 12.8912L25.5958 12.4509L25.5963 12.4496L25.85 11.6277C26.4614 9.68828 27.2173 7.61894 28.2798 5.83803C29.4842 3.81918 31.0208 2.27425 33.0813 1.65302C33.0868 1.6525 33.0936 1.65201 33.101 1.65141C33.1552 1.64704 33.2326 1.64354 33.3342 1.64115C33.5376 1.63638 33.7934 1.638 34.0682 1.64065C34.4347 1.64418 34.9031 1.65267 35.2461 1.64082L35.5385 1.62135C35.8343 1.58537 36.095 1.5069 36.3077 1.43443C36.594 1.33687 36.6332 1.31303 36.8635 1.23782C37.1267 1.15189 37.3629 1.10287 37.6565 1.13242L37.7862 1.14973C37.7925 1.15154 37.8494 1.16747 37.9647 1.23051C38.0863 1.29696 38.2369 1.3959 38.4117 1.53012C38.7616 1.79878 39.1572 2.16628 39.5479 2.5768C40.2584 3.32343 40.8371 4.08934 41.0833 4.52553L41.1677 4.69095C41.7426 6.00002 41.8935 7.25249 41.9776 8.55587C42.0538 9.73717 42.0733 11.0707 42.3985 12.3688L42.4674 12.6286C42.6113 13.134 42.7993 13.5959 43.1046 13.9435C43.4607 14.3488 43.8924 14.5086 44.3052 14.5468C44.6207 14.576 45.0053 14.5302 45.1957 14.5168C45.3797 14.5038 45.5593 14.4985 45.7515 14.515L45.9487 14.5387L45.9491 14.5396C48.0524 14.8823 49.0708 15.0576 50.907 15.1053L51.7494 15.118C53.3321 15.1274 55.1253 15.0788 56.8177 15.3558C58.3995 15.6148 59.7212 16.1351 60.6034 17.1074L60.774 17.3081Z" stroke="#3237ED" stroke-width="2"/>
</svg>
