<svg width="932" height="844" viewBox="0 0 932 844" fill="none" xmlns="http://www.w3.org/2000/svg">
<path d="M926.624 396.115C923.338 415.345 918.984 422.564 905.311 438.362C867.52 481.925 836.052 493.791 785.615 513.391C771.797 518.766 756.505 520.697 739.614 522.331C721 524.135 702.245 523.894 683.741 526.403C681.493 532.204 711.085 561.281 715.097 568.05C744.992 618.598 764.125 718.591 751.75 775.875C747.068 797.517 707.035 844.484 682.338 843.158C653.121 841.598 628.07 830.607 601.114 816.247C565.955 797.535 533.279 768.441 501.942 750.066L445.497 656.177C436.513 658.11 440.318 668.315 435.987 674.515C431.381 681.127 421.733 683.904 417.476 689.66C404.297 707.592 393.51 731.28 374.634 748.516C360.59 761.304 316.401 788.274 300.36 793.546C298.691 794.1 301.699 799.509 299.361 801.098C297.896 802.093 268.936 812.133 265.981 812.528C244.577 815.218 228.015 805.106 209.473 802.782C204.002 802.108 196.845 806.438 193.91 805.469C192.153 804.898 189.631 798.729 185.93 796.445C158.502 779.595 143.258 773.598 129.904 740.543C99.8746 666.21 147.613 558.929 193.662 500.822C203.994 487.804 216.179 477.706 227.666 462.891C258.007 423.762 267.371 417.494 209.164 404.756C153.207 392.516 115.113 386.76 58.3742 368.552C52.753 366.751 46.383 369.361 40.7723 366.578C17.8542 355.227 2.18667 307.148 0.0869104 283.078C-0.192872 279.932 3.83575 278.503 3.90036 275.763C4.4202 253.186 8.09633 227.033 20.2331 206.656C35.7262 180.657 44.4681 192.194 59.2292 181.687C61.8262 179.852 55.9944 175.723 66.4457 171.06C74.1376 167.616 87.4115 162.274 91.1907 172.491L97.3939 169.989C91.7635 161.073 109.795 152.86 116.753 151.584C148.443 145.884 163.81 158.44 188.975 165.126C231.779 176.477 271.865 183.576 314.072 196.654C323.334 199.537 335.068 211.764 347.978 206.842C345.65 197.81 348.658 187.152 351.262 178.572C370.69 114.392 401.086 30.0618 472.328 9.02705C477.114 7.62432 503.781 9.04453 510.488 8.23106C522.076 6.82146 531.11 -1.49847 547.945 1.36664C565.082 4.28048 601.809 46.0493 608.947 62.2991C628.048 105.791 618.358 144.628 628.83 181.446C636.571 208.631 646.034 195.481 668.425 199.137C703.789 204.901 717.424 207.298 751.819 207.494C751.819 207.494 864.026 204.492 896.601 245.416C917.229 271.313 905.758 270.431 909.857 292.25C914.497 316.906 931.124 361.83 931.821 386.426C931.965 391.021 927.135 393.2 926.649 396.103L926.624 396.115Z" fill="#3237ED"/>
</svg>
